<svg width="24" height="21" viewBox="0 0 24 21" fill="none" xmlns="http://www.w3.org/2000/svg">
<circle opacity="0.2" r="7.8973" transform="matrix(0.999914 0.0130896 -0.707107 0.707107 13.7528 13.2472)" fill="url(#paint0_linear_1207_34028)"/>
<circle cx="9.5" cy="9.5" r="9.5" fill="#F16500"/>
<path d="M8.93512 13C9.55707 12.8667 10.4456 12.9556 10.3123 12.6002C10.3345 12.2892 10.2679 10.7788 10.2679 10.4678L10.2901 10.3567C11.6673 10.3567 12.9111 10.2679 13 10.0457C12.8667 9.42379 12.9556 8.53529 12.6002 8.66857C12.2892 8.64636 10.7788 8.71299 10.4678 8.71299L10.2901 8.69078V8.15768C10.3123 8.00219 10.3345 7.35803 10.3567 7.22476C10.2012 6.91378 10.5344 6.02528 9.69034 6.00307C9.22388 5.98086 8.71299 6.06971 8.69078 6.5806C8.69078 6.78051 8.64636 7.6468 8.62414 8.69078H8.15768C8.00219 8.66857 7.35803 8.64636 7.22476 8.62414C6.91378 8.77963 6.02529 8.44644 6.00307 9.29052C5.98086 9.75698 6.06971 10.2679 6.5806 10.2901C6.78051 10.2901 7.62458 10.3345 8.62414 10.3567C8.64636 11.6895 8.71299 12.8889 8.93512 13Z" fill="white"/>
<defs>
<linearGradient id="paint0_linear_1207_34028" x1="6.75527" y1="8.11704" x2="11.119" y2="-5.36952" gradientUnits="userSpaceOnUse">
<stop/>
<stop offset="1" stop-opacity="0"/>
</linearGradient>
</defs>
</svg>
