<svg xmlns="http://www.w3.org/2000/svg" xmlns:xlink="http://www.w3.org/1999/xlink" width="640" zoomAndPan="magnify" viewBox="0 0 480 434.999989" height="580" preserveAspectRatio="xMidYMid meet" version="1.0"><path fill="#1647e2" d="M 468.246094 420 L 431.332031 420 L 431.332031 395.820312 C 440.007812 391.78125 446.097656 380.792969 446.097656 367.5 C 446.097656 350.679688 436.367188 337.5 423.949219 337.5 C 411.527344 337.5 401.800781 350.679688 401.800781 367.5 C 401.800781 380.792969 407.886719 391.78125 416.566406 395.820312 L 416.566406 420 L 372.269531 420 L 372.269531 148.070312 L 416.566406 213.023438 L 416.566406 323.371094 C 421.421875 322.210938 426.476562 322.210938 431.332031 323.371094 L 431.332031 210.679688 C 431.332031 209.152344 430.871094 207.664062 430.015625 206.410156 L 370.21875 118.726562 C 369.28125 117.351562 367.917969 116.335938 366.347656 115.835938 C 291.277344 92.09375 220.324219 106.550781 184.007812 117.578125 L 184.007812 133.390625 C 216.351562 123.1875 285.3125 107.492188 357.503906 128.820312 L 357.503906 149.128906 C 285.207031 125.902344 215.453125 140.839844 184.007812 150.214844 L 184.007812 165.960938 C 211.816406 157.324219 284.59375 139.859375 357.503906 164.910156 L 357.503906 185.566406 C 285.746094 162.066406 216.25 176.40625 184.007812 185.851562 L 184.007812 201.582031 C 212.933594 192.765625 285.308594 176.085938 357.503906 201.394531 L 357.503906 222.003906 C 286.226562 198.21875 216.984375 212.003906 184.007812 221.503906 L 184.007812 237.234375 C 213.933594 228.300781 286.011719 212.308594 357.503906 237.871094 L 357.503906 258.46875 C 286.679688 234.390625 217.675781 247.625 184.007812 257.160156 L 184.007812 272.859375 C 214.839844 263.792969 286.484375 248.460938 357.503906 274.351562 L 357.503906 296.9375 C 285.207031 273.710938 215.453125 288.648438 184.007812 298.023438 L 184.007812 313.769531 C 211.816406 305.136719 284.59375 287.667969 357.503906 312.722656 L 357.503906 333.375 C 285.746094 309.875 216.25 324.214844 184.007812 333.664062 L 184.007812 349.390625 C 212.933594 340.578125 285.308594 323.894531 357.503906 349.203125 L 357.503906 420 L 294.75 420 L 294.75 382.5 C 294.742188 378.523438 293.1875 374.710938 290.417969 371.898438 C 287.652344 369.085938 283.898438 367.503906 279.984375 367.5 L 243.070312 367.5 C 239.152344 367.503906 235.402344 369.085938 232.632812 371.898438 C 229.863281 374.710938 228.308594 378.523438 228.304688 382.5 L 228.304688 420 L 169.242188 420 L 169.242188 18.359375 L 202.464844 34.648438 L 202.464844 97.230469 C 207.121094 96.15625 212.058594 95.121094 217.230469 94.152344 L 217.230469 41.886719 L 246.761719 56.363281 L 246.761719 89.867188 C 251.558594 89.375 256.480469 88.980469 261.527344 88.679688 L 261.527344 51.65625 C 261.527344 50.246094 261.132812 48.863281 260.394531 47.667969 C 259.65625 46.472656 258.601562 45.515625 257.351562 44.902344 L 167.285156 0.746094 C 166.324219 0.273438 165.273438 0.0195312 164.207031 0 C 163.140625 -0.0195312 162.085938 0.199219 161.109375 0.632812 L 40.765625 54.316406 C 39.453125 54.902344 38.335938 55.863281 37.550781 57.082031 C 36.765625 58.300781 36.351562 59.726562 36.351562 61.183594 L 36.351562 420 L 10.511719 420 C 8.550781 420 6.675781 420.789062 5.289062 422.195312 C 3.90625 423.601562 3.128906 425.511719 3.128906 427.5 C 3.128906 429.488281 3.90625 431.398438 5.289062 432.804688 C 6.675781 434.210938 8.550781 435 10.511719 435 L 468.246094 435 C 470.203125 435 472.082031 434.210938 473.464844 432.804688 C 474.851562 431.398438 475.628906 429.488281 475.628906 427.5 C 475.628906 425.511719 474.851562 423.601562 473.464844 422.195312 C 472.082031 420.789062 470.203125 420 468.246094 420 Z M 423.949219 352.5 C 426.957031 352.5 431.332031 358.34375 431.332031 367.5 C 431.332031 376.65625 426.957031 382.5 423.949219 382.5 C 420.9375 382.5 416.566406 376.65625 416.566406 367.5 C 416.566406 358.34375 420.9375 352.5 423.949219 352.5 Z M 243.070312 382.5 L 279.984375 382.5 L 279.984375 420 L 243.070312 420 Z M 110.179688 39.734375 L 124.945312 33.148438 L 124.945312 420 L 110.179688 420 Z M 95.414062 420 L 80.648438 420 L 80.648438 52.90625 L 95.414062 46.320312 Z M 139.710938 26.558594 L 154.476562 19.972656 L 154.476562 420 L 139.710938 420 Z M 51.117188 66.082031 L 65.882812 59.492188 L 65.882812 420 L 51.117188 420 Z M 51.117188 66.082031 " fill-opacity="1" fill-rule="nonzero"/><path fill="#1647e2" d="M 217.496094 418.921875 C 219.707031 418.921875 221.832031 418.042969 223.394531 416.480469 C 224.960938 414.914062 225.839844 412.792969 225.839844 410.578125 C 225.839844 408.367188 224.960938 406.242188 223.394531 404.679688 C 221.832031 403.113281 219.707031 402.234375 217.496094 402.234375 L 209.152344 402.234375 C 206.9375 402.234375 204.816406 403.113281 203.253906 404.679688 C 201.6875 406.242188 200.808594 408.367188 200.808594 410.578125 C 200.808594 412.792969 201.6875 414.914062 203.253906 416.480469 C 204.816406 418.042969 206.9375 418.921875 209.152344 418.921875 Z M 217.496094 418.921875 " fill-opacity="1" fill-rule="nonzero"/><path fill="#1647e2" d="M 359.335938 418.921875 C 361.550781 418.921875 363.671875 418.042969 365.238281 416.480469 C 366.800781 414.914062 367.679688 412.792969 367.679688 410.578125 C 367.679688 408.367188 366.800781 406.242188 365.238281 404.679688 C 363.671875 403.113281 361.550781 402.234375 359.335938 402.234375 L 350.992188 402.234375 C 348.78125 402.234375 346.65625 403.113281 345.09375 404.679688 C 343.527344 406.242188 342.648438 408.367188 342.648438 410.578125 C 342.648438 412.792969 343.527344 414.914062 345.09375 416.480469 C 346.65625 418.042969 348.78125 418.921875 350.992188 418.921875 Z M 359.335938 418.921875 " fill-opacity="1" fill-rule="nonzero"/></svg>