<svg fill="none" height="6" viewBox="0 0 15 6" width="15" xmlns="http://www.w3.org/2000/svg"><path d="m6.84892 6v-1.70227c-.61321-.04311-1.21894-.15835-1.80408-.34322l-.67306 1.57187-1.05046-.42124.67402-1.57188c-.54822-.26824-1.06135-.60036-1.5283-.98923l-1.24556 1.20111-.804488-.77818 1.245678-1.20122c-.33506-.376-.6302-.784428-.880673-1.219124l1.018083-.546616c.566.970554 1.38369 1.77728 2.37018 2.33833.98648.56105 2.1067.85653 3.24721.85653 1.14052 0 2.26073-.29548 3.24723-.85653s1.8042-1.367776 2.3702-2.33833l1.0179.546616c-.251.43456-.5463.842964-.8814 1.219124l1.2456 1.20122-.8044.77818-1.2456-1.20111c-.4669.38882-.9802.72094-1.5284.98923l.6741 1.57188-1.0504.42124-.67401-1.57187c-.58513.18489-1.19086.30014-1.80408.34322v1.70227z" fill="#383535"/></svg>