<svg xmlns="http://www.w3.org/2000/svg" xmlns:xlink="http://www.w3.org/1999/xlink" width="170" zoomAndPan="magnify" viewBox="0 0 127.5 104.999996" height="140" preserveAspectRatio="xMidYMid meet" version="1.0"><defs><clipPath id="a158dde7e1"><path d="M 3 0.3125 L 124 0.3125 L 124 104.792969 L 3 104.792969 Z M 3 0.3125 " clip-rule="nonzero"/></clipPath></defs><g clip-path="url(#a158dde7e1)"><path fill="#1647e2" d="M 90.429688 0.3125 C 81.363281 0.289062 72.65625 3.84375 66.214844 10.191406 L 63.496094 12.980469 L 60.773438 10.277344 C 54.335938 3.929688 45.628906 0.375 36.558594 0.398438 C 32.183594 0.363281 27.847656 1.210938 23.8125 2.886719 C 19.777344 4.5625 16.125 7.035156 13.078125 10.152344 C 7.085938 16.339844 3.78125 24.613281 3.863281 33.199219 C 3.949219 41.785156 7.414062 49.992188 13.523438 56.066406 L 61.828125 103.988281 C 62.050781 104.207031 62.308594 104.378906 62.597656 104.5 C 62.882812 104.617188 63.191406 104.679688 63.5 104.679688 C 63.8125 104.679688 64.117188 104.617188 64.40625 104.5 C 64.691406 104.378906 64.953125 104.207031 65.171875 103.988281 L 110.148438 59.289062 L 113.476562 55.976562 C 119.585938 49.90625 123.054688 41.699219 123.136719 33.113281 C 123.222656 24.527344 119.914062 16.253906 113.925781 10.066406 C 110.875 6.945312 107.222656 4.472656 103.183594 2.796875 C 99.144531 1.121094 94.808594 0.273438 90.429688 0.3125 Z M 102.347656 46.074219 L 99.601562 48.792969 L 63.496094 84.699219 L 24.644531 46.085938 C 21.996094 43.53125 20.164062 40.257812 19.371094 36.675781 C 18.578125 33.09375 18.859375 29.359375 20.183594 25.933594 C 21.476562 22.691406 23.738281 19.917969 26.664062 17.988281 C 29.589844 16.054688 33.035156 15.058594 36.546875 15.128906 C 41.664062 15.128906 46.574219 17.136719 50.214844 20.710938 L 60.226562 30.738281 C 60.652344 31.164062 61.15625 31.5 61.714844 31.730469 C 62.269531 31.960938 62.867188 32.078125 63.46875 32.078125 C 64.074219 32.078125 64.667969 31.960938 65.226562 31.730469 C 65.78125 31.5 66.289062 31.164062 66.710938 30.738281 L 76.726562 20.710938 C 80.367188 17.136719 85.277344 15.132812 90.394531 15.128906 C 93.902344 15.058594 97.351562 16.054688 100.277344 17.988281 C 103.199219 19.917969 105.460938 22.691406 106.757812 25.933594 C 108.085938 29.351562 108.375 33.082031 107.589844 36.660156 C 106.804688 40.242188 104.980469 43.515625 102.347656 46.074219 Z M 102.347656 46.074219 " fill-opacity="1" fill-rule="nonzero"/></g></svg>