<svg xmlns="http://www.w3.org/2000/svg" xmlns:xlink="http://www.w3.org/1999/xlink" width="630" zoomAndPan="magnify" viewBox="0 0 472.5 464.999988" height="620" preserveAspectRatio="xMidYMid meet" version="1.0"><defs><clipPath id="e74c690c06"><path d="M 3 0.246094 L 468 0.246094 L 468 464.753906 L 3 464.753906 Z M 3 0.246094 " clip-rule="nonzero"/></clipPath></defs><g clip-path="url(#e74c690c06)"><path fill="#1647e2" d="M 463.0625 132.292969 L 422.679688 58.273438 L 422.679688 0.246094 L 407.695312 0.246094 L 407.695312 62.09375 L 449.90625 139.472656 C 451.703125 142.761719 452.648438 146.492188 452.648438 150.238281 L 452.648438 208.164062 C 452.648438 217.457031 445.097656 225.007812 435.804688 225.007812 C 427.535156 225.007812 420.546875 219.089844 419.1875 210.929688 L 406.96875 137.597656 L 361.148438 114.6875 L 347.226562 79.871094 L 333.316406 85.4375 L 349.363281 125.542969 L 393.445312 147.585938 L 404.414062 213.386719 C 406.210938 224.175781 413.277344 232.800781 422.679688 237.054688 L 422.679688 292.4375 C 422.679688 300.699219 415.960938 307.421875 407.695312 307.421875 C 399.433594 307.421875 392.710938 300.699219 392.710938 292.4375 L 392.710938 195.039062 L 377.726562 195.039062 L 377.726562 307.421875 C 377.726562 315.683594 371.007812 322.40625 362.742188 322.40625 C 354.480469 322.40625 347.757812 315.683594 347.757812 307.421875 L 347.757812 249.722656 C 357.4375 237.308594 362.742188 222.160156 362.742188 206.164062 C 362.742188 166.980469 330.863281 135.101562 291.679688 135.101562 C 279.671875 135.101562 268.125 138.078125 257.855469 143.652344 L 257.855469 105.335938 C 257.855469 91.980469 261.773438 79.046875 269.183594 67.9375 L 287.824219 39.976562 L 287.824219 0.246094 L 272.839844 0.246094 L 272.839844 35.4375 L 256.714844 59.628906 C 247.65625 73.210938 242.871094 89.019531 242.871094 105.34375 L 242.871094 154.613281 C 242.398438 155.0625 241.890625 155.460938 241.433594 155.917969 L 235.378906 161.96875 L 229.324219 155.917969 C 215.90625 142.496094 198.058594 135.101562 179.074219 135.101562 C 162.121094 135.101562 146.550781 141.089844 134.324219 151.03125 C 129.269531 141.605469 119.4375 135.101562 108.011719 135.101562 C 94.945312 135.101562 83.933594 143.554688 79.835938 155.242188 C 75.046875 151.988281 69.273438 150.085938 63.0625 150.085938 C 46.53125 150.085938 33.09375 163.527344 33.09375 180.054688 L 33.09375 232.6875 C 16.421875 233.667969 3.125 247.417969 3.125 264.328125 L 3.125 322.253906 C 3.125 328.503906 4.703125 334.707031 7.695312 340.199219 L 48.078125 414.21875 L 48.078125 464.753906 L 63.0625 464.753906 L 63.0625 410.398438 L 20.851562 333.019531 C 19.050781 329.730469 18.109375 326 18.109375 322.253906 L 18.109375 264.328125 C 18.109375 255.035156 25.660156 247.484375 34.949219 247.484375 C 43.222656 247.484375 50.210938 253.402344 51.566406 261.5625 L 63.789062 334.894531 L 109.609375 357.804688 L 123.527344 392.621094 L 137.441406 387.054688 L 121.394531 346.949219 L 77.3125 324.90625 L 66.34375 259.097656 C 64.550781 248.308594 57.488281 239.691406 48.078125 235.429688 L 48.078125 180.054688 C 48.078125 171.792969 54.796875 165.070312 63.0625 165.070312 C 71.324219 165.070312 78.042969 171.792969 78.042969 180.054688 L 78.042969 277.453125 L 93.027344 277.453125 L 93.027344 165.070312 C 93.027344 156.808594 99.75 150.085938 108.011719 150.085938 C 115.558594 150.085938 121.746094 155.707031 122.789062 162.964844 C 113.566406 174.953125 108.011719 189.90625 108.011719 206.164062 C 108.011719 222.160156 113.316406 237.308594 122.996094 249.722656 L 122.996094 277.453125 L 137.980469 277.453125 L 137.980469 265.570312 L 191.714844 319.304688 C 197.851562 325.4375 205.058594 330.078125 212.902344 333.140625 L 212.902344 367.15625 C 212.902344 380.511719 208.984375 393.445312 201.574219 404.554688 L 182.933594 432.515625 L 182.933594 464.753906 L 197.917969 464.753906 L 197.917969 437.054688 L 214.039062 412.863281 C 223.097656 399.28125 227.886719 383.472656 227.886719 367.148438 L 227.886719 336.886719 C 230.359375 337.1875 232.855469 337.390625 235.378906 337.390625 C 251.875 337.390625 267.378906 330.96875 279.042969 319.304688 L 291.613281 306.730469 C 296.707031 316.023438 306.46875 322.40625 317.792969 322.40625 C 324.003906 322.40625 329.777344 320.5 334.566406 317.25 C 338.664062 328.9375 349.675781 337.390625 362.742188 337.390625 C 375.808594 337.390625 386.824219 328.9375 390.921875 317.25 C 395.707031 320.5 401.484375 322.40625 407.695312 322.40625 C 424.222656 322.40625 437.664062 308.964844 437.664062 292.4375 L 437.664062 239.804688 C 454.335938 238.824219 467.632812 225.074219 467.632812 208.164062 L 467.632812 150.238281 C 467.632812 143.988281 466.050781 137.785156 463.0625 132.292969 Z M 268.449219 308.710938 C 259.617188 317.542969 247.867188 322.40625 235.378906 322.40625 C 222.890625 322.40625 211.140625 317.542969 202.308594 308.710938 L 139.421875 245.820312 C 128.832031 235.226562 122.996094 221.148438 122.996094 206.164062 C 122.996094 175.246094 148.15625 150.085938 179.074219 150.085938 C 194.058594 150.085938 208.136719 155.921875 218.730469 166.511719 L 235.378906 183.15625 L 252.027344 166.511719 C 262.621094 155.921875 276.695312 150.085938 291.679688 150.085938 C 322.601562 150.085938 347.757812 175.246094 347.757812 206.164062 C 347.757812 221.148438 341.921875 235.226562 331.335938 245.820312 Z M 317.792969 307.421875 C 310.492188 307.421875 304.417969 302.167969 303.089844 295.253906 L 332.773438 265.570312 L 332.773438 292.4375 C 332.773438 300.699219 326.054688 307.421875 317.792969 307.421875 Z M 317.792969 307.421875 " fill-opacity="1" fill-rule="nonzero"/></g><path fill="#1647e2" d="M 160.613281 224.640625 C 155.683594 219.703125 152.964844 213.140625 152.964844 206.164062 C 152.964844 191.765625 164.675781 180.054688 179.074219 180.054688 L 179.074219 165.070312 C 156.417969 165.070312 137.980469 183.507812 137.980469 206.164062 C 137.980469 217.132812 142.253906 227.457031 150.015625 235.226562 L 192.066406 277.28125 L 202.660156 266.6875 Z M 160.613281 224.640625 " fill-opacity="1" fill-rule="nonzero"/><path fill="#1647e2" d="M 212.867188 276.882812 L 202.269531 287.480469 L 212.902344 298.113281 L 223.5 287.515625 Z M 212.867188 276.882812 " fill-opacity="1" fill-rule="nonzero"/></svg>