<svg width="16" height="9" viewBox="0 0 16 9" fill="none" xmlns="http://www.w3.org/2000/svg">
<path d="M8 0C4.8 0 1.77778 1.71 0 4.5C1.77778 7.29 4.71111 9 8 9C11.2889 9 14.2222 7.29 16 4.5C14.2222 1.71 11.2889 0 8 0ZM8 7.74C5.42222 7.74 3.02222 6.48 1.68889 4.5C3.02222 2.52 5.42222 1.26 8 1.26C10.5778 1.26 12.9778 2.52 14.3111 4.5C12.9778 6.48 10.5778 7.74 8 7.74Z" fill="#383535"/>
<path d="M8 1.98018C6.57778 1.98018 5.33333 3.06018 5.33333 4.50018C5.33333 5.94018 6.48889 7.02018 8 7.02018C9.51111 7.02018 10.6667 5.85018 10.6667 4.50018C10.6667 3.06018 9.51111 1.98018 8 1.98018ZM7.37778 4.77018C6.84444 4.77018 6.48889 4.41018 6.48889 3.96018C6.48889 3.51018 6.84444 3.15018 7.37778 3.15018C7.91111 3.15018 8.26667 3.51018 8.26667 3.96018C8.26667 4.41018 7.91111 4.77018 7.37778 4.77018Z" fill="#383535"/>
</svg>
